<svg width="80" height="80" viewBox="0 0 80 80" fill="none" xmlns="http://www.w3.org/2000/svg">
<path d="M79.8244 48.8871C79.8244 44.6957 76.4157 41.2887 72.2247 41.2887H9.6879V10.227C9.6879 7.15536 12.186 4.65709 15.2573 4.65709H20.3632C21.2242 4.65709 22.0479 5.02759 22.6191 5.67337L24.9537 8.30825C24.815 8.98715 24.7405 9.69089 24.7405 10.4091V13.4621C23.8361 13.7829 23.1883 14.6419 23.1883 15.654C23.1883 16.9394 24.2314 17.9826 25.5166 17.9826H44.7769C46.0621 17.9826 47.1052 16.9394 47.1052 15.654C47.1052 14.6419 46.4574 13.7809 45.553 13.4621V10.4091C45.5551 4.66951 40.888 0 35.1488 0C31.9367 0 29.0578 1.46543 27.1475 3.76086L26.1044 2.5852C24.6495 0.941768 22.557 0 20.3632 0H15.2594C9.6196 0 5.03324 4.58879 5.03324 10.227V41.5971C5.03324 41.6861 5.03945 41.7752 5.0498 41.8642C2.29302 43.0067 0.349609 45.7244 0.349609 48.8871C0.349609 52.0435 2.28474 54.7571 5.03324 55.9037V60.1117C5.03324 68.4468 11.8134 75.2255 20.1459 75.2255H21.4767V77.1442C21.4767 78.4296 22.5198 79.4728 23.805 79.4728C25.0903 79.4728 26.1334 78.4296 26.1334 77.1442V75.2255H54.0427V77.1442C54.0427 78.4296 55.0858 79.4728 56.3711 79.4728C57.6563 79.4728 58.6994 78.4296 58.6994 77.1442V75.2255H60.0302C68.3647 75.2255 75.1429 68.4448 75.1429 60.1117V55.9037C77.8893 54.7571 79.8244 52.0456 79.8244 48.8871ZM35.1488 4.65709C38.3195 4.65709 40.8983 7.23609 40.8983 10.407V13.3276H29.3972V10.4091C29.3972 7.23609 31.9781 4.65709 35.1488 4.65709ZM60.0282 70.5705H20.1438C14.3777 70.5705 9.6879 65.8803 9.6879 60.1137V56.4874H70.4861V60.1137C70.4861 65.8782 65.7942 70.5705 60.0282 70.5705ZM72.2247 51.8303H7.94732C6.32471 51.8303 5.00427 50.5098 5.00427 48.8871C5.00427 47.2643 6.32471 45.9438 7.94732 45.9438H72.2247C73.8473 45.9438 75.1677 47.2643 75.1677 48.8871C75.1677 50.5098 73.8493 51.8303 72.2247 51.8303Z" fill="#0e2859"/>
<path d="M46.4246 33.8665C46.2259 32.9101 45.4518 32.1669 44.4851 32.0179C43.5247 31.8709 42.5456 32.3656 42.0902 33.2227C41.6328 34.0797 41.7632 35.1644 42.4173 35.8848C43.0714 36.6031 44.1353 36.8453 45.0337 36.4727C46.0417 36.0525 46.6482 34.9408 46.4246 33.8665Z" fill="#0e2859"/>
<path d="M37.1132 33.8666C36.9145 32.9102 36.1404 32.1671 35.1716 32.018C34.2112 31.8711 33.2321 32.3679 32.7767 33.2228C32.3193 34.0798 32.4497 35.1646 33.1038 35.8849C33.7579 36.6053 34.8218 36.8455 35.7202 36.4729C36.7282 36.0526 37.3368 34.9431 37.1132 33.8666Z" fill="#0e2859"/>
<path d="M27.8016 33.8665C27.6029 32.9101 26.8287 32.1648 25.8621 32.0179C24.9016 31.8709 23.9226 32.3656 23.4672 33.2227C23.0097 34.0797 23.1401 35.1644 23.7942 35.8848C24.4462 36.6031 25.5123 36.8453 26.4106 36.4727C27.4145 36.0525 28.0231 34.9408 27.8016 33.8665Z" fill="#0e2859"/>
<path d="M46.4597 24.7778C46.3583 23.809 45.6545 22.9871 44.7086 22.7491C43.7667 22.5131 42.7442 22.9043 42.206 23.7137C41.6699 24.5231 41.6906 25.6141 42.2722 26.3924C42.8539 27.1729 43.8868 27.5165 44.8183 27.2329C45.8677 26.9162 46.5715 25.8708 46.4597 24.7778Z" fill="#0e2859"/>
<path d="M37.1482 24.7778C37.0468 23.809 36.343 22.9892 35.3971 22.7491C34.4553 22.5131 33.4348 22.9043 32.8945 23.7137C32.3564 24.5231 32.3812 25.6099 32.9608 26.3924C33.5383 27.1749 34.5774 27.5165 35.5089 27.235C36.5542 26.9182 37.2579 25.8687 37.1482 24.7778Z" fill="#0e2859"/>
<path d="M27.8348 24.7778C27.7354 23.809 27.0296 22.9871 26.0836 22.7491C25.1418 22.5131 24.1193 22.9043 23.5811 23.7137C23.0429 24.5252 23.0677 25.6099 23.6473 26.3924C24.2248 27.1749 25.2639 27.5165 26.1954 27.235C27.2407 26.9182 27.9465 25.8687 27.8348 24.7778Z" fill="#0e2859"/>
</svg>
