<svg width="80" height="69" viewBox="0 0 80 69" fill="none" xmlns="http://www.w3.org/2000/svg">
<path d="M72.2166 33.7024V11.3663C72.2166 10.0998 71.1735 9.07191 69.8883 9.07191H52.5372C53.7624 2.17653 45.2897 -2.28579 40.0869 2.84343C34.884 -2.28171 26.4092 2.17245 27.6365 9.07191H10.2854C8.99813 9.07191 7.95715 10.0998 7.95715 11.3663V33.7024C3.63593 34.4957 0.351562 38.2381 0.351562 42.7228V66.4314C0.351562 67.698 1.39254 68.7258 2.6798 68.7258H7.18107C11.2063 68.7258 15.2254 67.7653 18.8036 65.9461C18.9361 65.9461 22.6509 63.6782 28.2925 63.6782H51.8833C55.1697 63.6782 58.4499 64.4613 61.3721 65.9461C64.9504 67.7632 68.9694 68.7258 72.9947 68.7258H77.496C78.7812 68.7258 79.8242 67.698 79.8242 66.4314C79.8242 63.8801 79.8242 45.4394 79.8242 42.7228C79.8222 38.2381 76.5378 34.4957 72.2166 33.7024ZM32.9159 6.01681C33.9424 4.96446 35.687 4.99505 36.7321 6.02701L39.5364 8.79047C39.8385 9.08823 40.3311 9.08823 40.6332 8.79047L43.4871 5.97807C45.1345 4.35466 47.9925 5.49268 47.9925 7.81765C47.9925 8.5131 47.7173 9.16573 47.2206 9.65723L40.0869 16.6872L32.9531 9.65723C31.9328 8.65382 31.9225 7.03654 32.9159 6.01681ZM30.4303 13.6607L38.4395 21.5533C39.348 22.4487 40.8215 22.4487 41.7321 21.5533L49.7413 13.6607H67.558V33.5453H63.2492L62.5187 27.7757C62.2289 25.4854 60.2422 23.756 57.8994 23.756H49.5923C47.2475 23.756 45.2628 25.4834 44.971 27.7757L44.2384 33.5453H35.9312L35.2007 27.7757C34.9088 25.4854 32.9242 23.756 30.5794 23.756H22.2722C19.9295 23.756 17.9427 25.4834 17.6509 27.7757L16.9183 33.5453H12.6136V13.6607H30.4303ZM21.6141 33.5453L22.2743 28.3447H30.5814L31.2416 33.5453H21.6141ZM48.9321 33.5453L49.5923 28.3447H57.8994L58.5596 33.5453H48.9321ZM5.00804 42.7228C5.00804 40.1919 7.09621 38.1341 9.66452 38.1341H70.5092C73.0775 38.1341 75.1657 40.1919 75.1657 42.7228V48.2294H5.00804V42.7228ZM75.1657 64.1371H72.9926C69.7062 64.1371 66.426 63.3539 63.5038 61.8692C59.9255 60.0521 55.9065 59.0894 51.8812 59.0894H28.2904C21.5686 59.0894 16.6534 61.8692 16.6679 61.8692C13.7477 63.3539 10.4654 64.1371 7.179 64.1371H5.00804V52.8181H75.1657V64.1371Z" fill="#0e2859"/>
</svg>
