<svg width="80" height="64" viewBox="0 0 40 26" fill="none" xmlns="http://www.w3.org/2000/svg">
<path d="M25.4696 16.5156H14.5322V18.8593H25.4696V16.5156Z" fill="#0e2859"/>
<path d="M30.5468 18.4687C31.8412 18.4687 32.8906 17.4194 32.8906 16.125C32.8906 14.8306 31.8412 13.7812 30.5468 13.7812C29.2524 13.7812 28.2031 14.8306 28.2031 16.125C28.2031 17.4194 29.2524 18.4687 30.5468 18.4687Z" fill="#0e2859"/>
<path d="M9.45407 18.4687C10.7485 18.4687 11.7978 17.4194 11.7978 16.125C11.7978 14.8306 10.7485 13.7812 9.45407 13.7812C8.15967 13.7812 7.11035 14.8306 7.11035 16.125C7.11035 17.4194 8.15967 18.4687 9.45407 18.4687Z" fill="#0e2859"/>
<path d="M40.0004 9.87505C40.0004 7.93679 38.4231 6.35947 36.4848 6.35947H34.1411C33.8349 6.35947 33.538 6.39931 33.2552 6.47275L30.9826 0.109558H9.01882L6.74619 6.47275C6.46339 6.39931 6.16651 6.35947 5.86027 6.35947H3.51655C1.5783 6.35947 0.000976562 7.93679 0.000976562 9.87505C0.000976562 11.4531 1.04549 12.7906 2.47985 13.2344C2.44235 13.4133 2.42282 13.5953 2.42282 13.7812V25.8904H9.84459V23.5467H30.1568V25.8904H37.5786V13.7812C37.5786 13.5953 37.559 13.4133 37.5215 13.2344C38.9559 12.7906 40.0004 11.4531 40.0004 9.87505ZM10.6704 2.45328H29.331L31.2623 7.86101C31.0177 8.20944 30.8341 8.60397 30.7287 9.02896C27.7037 8.31257 23.9506 7.92195 20.0007 7.92195C16.0507 7.92195 12.2977 8.31257 9.27272 9.02896C9.16725 8.60397 8.98444 8.20944 8.73992 7.86101L10.6704 2.45328ZM3.51655 8.70319H5.86027C6.4376 8.70319 6.91729 9.12271 7.01338 9.67271C5.82199 10.0797 4.86185 10.5383 4.13217 11.0469H3.51655C2.87047 11.0469 2.34469 10.5211 2.34469 9.87505C2.34469 9.22896 2.87047 8.70319 3.51655 8.70319ZM4.76653 21.203V13.7812C4.76653 13.507 5.49309 12.5156 8.72195 11.5938C11.7188 10.7375 15.7242 10.2657 20.0007 10.2657C24.2772 10.2657 28.2826 10.7375 31.2794 11.5938C34.5083 12.5156 35.2349 13.507 35.2349 13.7812V21.203H4.76653ZM36.4848 11.0469H35.8684C35.1395 10.5383 34.1786 10.0797 32.9872 9.67271C33.0833 9.12271 33.563 8.70319 34.1403 8.70319H36.4841C37.1301 8.70319 37.6559 9.22896 37.6559 9.87505C37.6559 10.5211 37.1309 11.0469 36.4848 11.0469Z" fill="#0e2859"/>
</svg>
