<svg width="73" height="77" viewBox="0 0 73 77" fill="none" xmlns="http://www.w3.org/2000/svg">
<path d="M72.3061 29.0891C72.3061 28.3568 71.9474 27.6707 71.3446 27.254L32.6477 0.463794C32.2741 0.204822 31.8306 0.0664062 31.3767 0.0664062H2.94931C2.35695 0.0664062 1.78989 0.301564 1.37167 0.719789C0.951955 1.1395 0.716797 1.70656 0.716797 2.29892V74.037C0.716797 75.2709 1.71547 76.2696 2.94931 76.2696H44.7717C46.0041 76.2696 47.0043 75.2709 47.0043 74.037C47.0043 61.3177 57.3527 50.9677 70.0736 50.9677C70.6659 50.9677 71.2345 50.7326 71.6527 50.3129C72.0709 49.8946 72.3061 49.3261 72.3061 48.7352V29.0891ZM42.6285 71.8045H5.18183V62.8745H44.9057C43.6719 65.6413 42.883 68.6492 42.6285 71.8045ZM47.4165 58.4094H5.18183V4.53143H30.6786L67.8411 30.2589V46.592C59.3813 47.2737 51.9917 51.7967 47.4165 58.4094Z" fill="#0e2859"/>
<path d="M54.59 26.5023L29.5873 9.38641C29.2152 9.1319 28.7762 8.99646 28.3267 8.99646H11.879C10.6452 8.99646 9.64648 9.99514 9.64648 11.229V28.3449C9.64648 29.5773 10.6452 30.5774 11.879 30.5774H53.3279C54.3057 30.5774 55.1719 29.9404 55.4607 29.0042C55.7509 28.0696 55.3967 27.056 54.59 26.5023ZM14.1115 26.1124V13.4615H27.6331L46.1139 26.1124H14.1115Z" fill="#0e2859"/>
<path d="M19.023 37.4238H11.879C10.6452 37.4238 9.64648 38.424 9.64648 39.6563C9.64648 40.8902 10.6452 41.8889 11.879 41.8889H19.023C20.2569 41.8889 21.2556 40.8887 21.2556 39.6563C21.2556 38.4225 20.2569 37.4238 19.023 37.4238Z" fill="#0e2859"/>
</svg>
