<svg width="80" height="81" viewBox="0 0 80 81" fill="none" xmlns="http://www.w3.org/2000/svg">
<path d="M77.4961 0.809448C75.2655 0.809448 4.90078 0.809448 2.67797 0.809448C1.39272 0.809448 0.349609 1.85256 0.349609 3.13781C0.349609 5.36838 0.349609 75.7331 0.349609 77.9559C0.349609 79.2412 1.39272 80.2843 2.67797 80.2843C4.90855 80.2843 75.2733 80.2843 77.4961 80.2843C78.7813 80.2843 79.8244 79.2412 79.8244 77.9559V26.5767V3.13781C79.8244 1.85256 78.7813 0.809448 77.4961 0.809448ZM75.1677 24.2483C73.707 24.2483 29.9291 24.2483 28.4452 24.2483V5.46618H75.1677V24.2483ZM51.7288 52.1887H28.4452V28.905H51.7288V52.1887ZM5.00634 5.46618H23.7885C23.7885 6.92684 23.7885 50.7047 23.7885 52.1887H5.00634V5.46618ZM5.00634 56.8454C6.467 56.8454 50.2449 56.8454 51.7288 56.8454V75.6275H5.00634V56.8454ZM75.1677 75.6275H56.3856C56.3856 74.1669 56.3856 30.389 56.3856 28.905H75.1677V75.6275Z" fill="#0e2859"/>
</svg>
