<svg width="96" height="94" viewBox="0 0 96 94" fill="none" xmlns="http://www.w3.org/2000/svg">
<path d="M31.7286 90.0388V66.2714C31.7286 63.8947 33.3131 62.3102 35.6899 62.3102H47.5736C49.9503 62.3102 51.5348 63.8947 51.5348 66.2714V90.0388" stroke="#007BFF" stroke-width="7.92246" stroke-linecap="round" stroke-linejoin="round"/>
<path d="M39.651 42.504H55.4959" stroke="#007BFF" stroke-width="7.92246" stroke-linecap="round" stroke-linejoin="round"/>
<path d="M4 38.5428L45.1968 4.87236C46.7813 3.68399 48.7619 3.68399 50.3464 4.87236L91.1471 38.5428" stroke="#007BFF" stroke-width="7.92246" stroke-linecap="round" stroke-linejoin="round"/>
<path d="M15.8837 30.6204V86.0776C15.8837 88.4543 17.4682 90.0388 19.8449 90.0388H67.3797" stroke="#007BFF" stroke-width="7.92246" stroke-linecap="round" stroke-linejoin="round"/>
<path d="M79.2633 90.0387V78.155" stroke="#007BFF" stroke-width="7.92246" stroke-linecap="round"/>
<path d="M79.2633 50.4265V30.6204" stroke="#007BFF" stroke-width="7.92246" stroke-linecap="round"/>
<path d="M71.3409 62.3102H87.1858C89.5625 62.3102 91.147 63.8947 91.147 66.2714V74.1939C91.147 76.5706 89.5625 78.1551 87.1858 78.1551H71.3409C68.9641 78.1551 67.3796 76.5706 67.3796 74.1939V66.2714C67.3796 63.8947 68.9641 62.3102 71.3409 62.3102Z" stroke="#007BFF" stroke-width="7.92246" stroke-linecap="round" stroke-linejoin="round"/>
</svg>