<svg width="81" height="105" viewBox="0 0 81 105" fill="none" xmlns="http://www.w3.org/2000/svg">
<mask id="path-1-outside-1" maskUnits="userSpaceOnUse" x="0.170898" y="-0.388672" width="67" height="105" fill="black">
<rect fill="white" x="0.170898" y="-0.388672" width="67" height="105"/>
<path d="M59.0298 55.8406C56.9236 55.8406 55.0564 56.7769 53.7699 58.2266C52.4834 56.7769 50.6161 55.8406 48.51 55.8406C46.4038 55.8406 44.5366 56.7769 43.2501 58.2266C41.9636 56.7769 40.0963 55.8406 37.9902 55.8406C36.7059 55.8406 35.5202 56.2073 34.4836 56.8006V51.4287C34.7115 51.3662 34.9416 51.3057 35.1674 51.2389C35.3405 51.1871 35.5093 51.1245 35.6802 51.0706C36.2084 50.9002 36.7278 50.7168 37.2428 50.514C37.3809 50.4579 37.519 50.4018 37.6549 50.3457C38.2466 50.0998 38.8296 49.8366 39.4016 49.5496C39.4323 49.5345 39.4651 49.5194 39.4936 49.5022C41.9285 48.2703 44.1728 46.676 46.1277 44.7408C46.1847 44.6847 46.2044 44.6071 46.2526 44.5445C50.9208 39.822 53.7699 33.3995 53.7699 26.5002C53.7699 19.3485 50.8726 12.693 45.6127 7.75688C40.3549 2.82511 33.4535 0.300975 26.1773 0.641841C13.2621 1.25238 2.56696 11.2432 1.3024 23.8811C0.509028 31.7987 3.43704 39.2978 8.73639 44.6222C8.76707 44.6589 8.77803 44.7085 8.81309 44.743C8.93144 44.8617 9.06294 44.9695 9.18348 45.0839C9.27114 45.168 9.36319 45.2478 9.45085 45.332C9.89356 45.7419 10.3472 46.1345 10.814 46.512C10.9543 46.6242 11.0924 46.7386 11.2348 46.8486C11.7038 47.211 12.186 47.5562 12.6769 47.8863C12.7997 47.9683 12.918 48.0546 13.0407 48.1366C13.65 48.5292 14.2702 48.8981 14.908 49.239C15.0548 49.3188 15.2104 49.3857 15.3595 49.4612C15.8548 49.7136 16.3545 49.9531 16.8673 50.1753C17.1018 50.2767 17.3407 50.3716 17.5818 50.4665C18.0486 50.6521 18.522 50.8246 18.9998 50.9843C19.2299 51.062 19.4578 51.1418 19.6901 51.213C19.9444 51.2906 20.2008 51.3618 20.4572 51.4309V77.5632L14.7458 71.9411C13.2446 70.4611 11.248 69.6478 9.12211 69.6478C4.73667 69.6478 1.1709 73.1578 1.1709 77.4748C1.1709 79.5674 1.99933 81.5328 3.4984 83.0106L20.4572 99.7022V102.44C20.4572 103.394 21.2418 104.166 22.2105 104.166H62.5364C63.5051 104.166 64.2897 103.394 64.2897 102.44V95.9441L65.8589 92.8569C65.9794 92.6196 66.043 92.3521 66.043 92.0845V62.7377C66.043 58.9342 62.898 55.8406 59.0298 55.8406ZM20.4572 42.0333V47.841C19.7252 47.6102 19.0151 47.3319 18.3138 47.032C18.1165 46.9457 17.9237 46.8508 17.7308 46.7601C17.2355 46.5315 16.7533 46.2855 16.2778 46.0223C16.0542 45.8972 15.8307 45.7721 15.6115 45.6383C15.1578 45.3665 14.7151 45.0731 14.2812 44.7689C14.0905 44.6351 13.8911 44.51 13.707 44.3698C13.1416 43.9491 12.598 43.5003 12.0742 43.0257C12.0216 42.9783 11.9756 42.9265 11.923 42.879C12.918 37.1253 17.2048 32.3359 22.9009 30.6359C24.2838 31.2982 25.8332 31.6801 27.4726 31.6801C29.1119 31.6801 30.6592 31.2982 32.0443 30.6359C37.7294 32.3316 42.0052 37.1037 43.0134 42.8445C42.7767 43.0646 42.5444 43.2889 42.2989 43.496C42.2485 43.5392 42.1959 43.5802 42.1433 43.6233C41.3083 44.318 40.4229 44.9566 39.4914 45.5348C39.452 45.5606 39.4104 45.5908 39.3709 45.6146C39.0334 45.8195 38.6827 46.0029 38.3343 46.1906C38.0055 46.3653 37.6768 46.5358 37.3415 46.6954C37.0566 46.8313 36.7673 46.9673 36.4758 47.0902C35.8621 47.3491 35.2397 47.5929 34.6041 47.7978C34.5647 47.8108 34.5274 47.828 34.4858 47.841V42.0333C34.4858 38.2256 31.3408 35.1297 27.4726 35.1297C23.6044 35.1297 20.4572 38.2256 20.4572 42.0333ZM30.9682 27.2704C30.9595 27.2747 30.9485 27.2747 30.9375 27.2812C30.451 27.5573 29.9469 27.7601 29.4385 27.9154C29.3464 27.9435 29.2566 27.978 29.1601 27.9996C28.9717 28.047 28.7788 28.0816 28.5881 28.1161C28.2703 28.1657 27.9504 28.2067 27.6194 28.2132C27.5186 28.2153 27.4156 28.2153 27.3126 28.2132C26.9838 28.2067 26.6617 28.1678 26.3439 28.1161C26.1532 28.0837 25.9626 28.0513 25.7719 27.9996C25.6776 27.9758 25.5878 27.9413 25.4935 27.9154C24.9851 27.7623 24.481 27.5573 23.9945 27.2812C23.9857 27.2769 23.9747 27.2768 23.966 27.2704C21.8817 26.0752 20.4572 23.8703 20.4572 21.3225C20.4572 17.5147 23.6022 14.4189 27.4704 14.4189C31.3386 14.4189 34.4836 17.5147 34.4836 21.3225C34.4836 23.8703 33.059 26.073 30.9682 27.2704ZM4.79146 24.2177C5.88727 13.2711 15.1535 4.61574 26.3439 4.08933C32.6602 3.77867 38.6389 5.98136 43.1931 10.2551C47.7517 14.5332 50.2633 20.302 50.2633 26.5002C50.2633 31.3759 48.6261 35.9797 45.8252 39.7336C44.1596 34.6206 40.3265 30.3835 35.3339 28.1743C36.9798 26.347 37.9902 23.9523 37.9902 21.3225C37.9902 15.6119 33.2716 10.9671 27.4704 10.9671C21.6692 10.9671 16.9506 15.6119 16.9506 21.3225C16.9506 23.9523 17.9609 26.3492 19.6068 28.1786C14.6121 30.3878 10.7768 34.6249 9.11334 39.7422C5.88947 35.4015 4.21945 29.9369 4.79146 24.2177ZM62.5364 91.6768L60.9672 94.764C60.8466 95.0013 60.7831 95.2688 60.7831 95.5363V100.714H23.9638V98.9882C23.9638 98.5286 23.7797 98.0907 23.451 97.7671L5.97932 80.5684C5.13993 79.7443 4.6775 78.6441 4.6775 77.4748C4.6775 75.0628 6.67188 73.0996 9.12211 73.0996C10.31 73.0996 11.4255 73.5548 12.2649 74.3811L20.97 82.9502C21.4741 83.4464 22.2258 83.5952 22.8811 83.3256C23.5364 83.0602 23.9638 82.4281 23.9638 81.7313V50.0933V42.0333C23.9638 40.1305 25.5374 38.5815 27.4704 38.5815C29.4034 38.5815 30.977 40.1305 30.977 42.0333V50.0933V62.7442V73.0996H34.4836V62.7442C34.4836 60.8414 36.0572 59.2924 37.9902 59.2924C39.9232 59.2924 41.4968 60.8414 41.4968 62.7442V73.0996H45.0034V62.7442C45.0034 60.8414 46.577 59.2924 48.51 59.2924C50.443 59.2924 52.0166 60.8414 52.0166 62.7442V73.0996H55.5232V62.7442C55.5232 60.8414 57.0968 59.2924 59.0298 59.2924C60.9628 59.2924 62.5364 60.8392 62.5364 62.7377V91.6768Z"/>
</mask>
<path d="M59.0298 55.8406C56.9236 55.8406 55.0564 56.7769 53.7699 58.2266C52.4834 56.7769 50.6161 55.8406 48.51 55.8406C46.4038 55.8406 44.5366 56.7769 43.2501 58.2266C41.9636 56.7769 40.0963 55.8406 37.9902 55.8406C36.7059 55.8406 35.5202 56.2073 34.4836 56.8006V51.4287C34.7115 51.3662 34.9416 51.3057 35.1674 51.2389C35.3405 51.1871 35.5093 51.1245 35.6802 51.0706C36.2084 50.9002 36.7278 50.7168 37.2428 50.514C37.3809 50.4579 37.519 50.4018 37.6549 50.3457C38.2466 50.0998 38.8296 49.8366 39.4016 49.5496C39.4323 49.5345 39.4651 49.5194 39.4936 49.5022C41.9285 48.2703 44.1728 46.676 46.1277 44.7408C46.1847 44.6847 46.2044 44.6071 46.2526 44.5445C50.9208 39.822 53.7699 33.3995 53.7699 26.5002C53.7699 19.3485 50.8726 12.693 45.6127 7.75688C40.3549 2.82511 33.4535 0.300975 26.1773 0.641841C13.2621 1.25238 2.56696 11.2432 1.3024 23.8811C0.509028 31.7987 3.43704 39.2978 8.73639 44.6222C8.76707 44.6589 8.77803 44.7085 8.81309 44.743C8.93144 44.8617 9.06294 44.9695 9.18348 45.0839C9.27114 45.168 9.36319 45.2478 9.45085 45.332C9.89356 45.7419 10.3472 46.1345 10.814 46.512C10.9543 46.6242 11.0924 46.7386 11.2348 46.8486C11.7038 47.211 12.186 47.5562 12.6769 47.8863C12.7997 47.9683 12.918 48.0546 13.0407 48.1366C13.65 48.5292 14.2702 48.8981 14.908 49.239C15.0548 49.3188 15.2104 49.3857 15.3595 49.4612C15.8548 49.7136 16.3545 49.9531 16.8673 50.1753C17.1018 50.2767 17.3407 50.3716 17.5818 50.4665C18.0486 50.6521 18.522 50.8246 18.9998 50.9843C19.2299 51.062 19.4578 51.1418 19.6901 51.213C19.9444 51.2906 20.2008 51.3618 20.4572 51.4309V77.5632L14.7458 71.9411C13.2446 70.4611 11.248 69.6478 9.12211 69.6478C4.73667 69.6478 1.1709 73.1578 1.1709 77.4748C1.1709 79.5674 1.99933 81.5328 3.4984 83.0106L20.4572 99.7022V102.44C20.4572 103.394 21.2418 104.166 22.2105 104.166H62.5364C63.5051 104.166 64.2897 103.394 64.2897 102.44V95.9441L65.8589 92.8569C65.9794 92.6196 66.043 92.3521 66.043 92.0845V62.7377C66.043 58.9342 62.898 55.8406 59.0298 55.8406ZM20.4572 42.0333V47.841C19.7252 47.6102 19.0151 47.3319 18.3138 47.032C18.1165 46.9457 17.9237 46.8508 17.7308 46.7601C17.2355 46.5315 16.7533 46.2855 16.2778 46.0223C16.0542 45.8972 15.8307 45.7721 15.6115 45.6383C15.1578 45.3665 14.7151 45.0731 14.2812 44.7689C14.0905 44.6351 13.8911 44.51 13.707 44.3698C13.1416 43.9491 12.598 43.5003 12.0742 43.0257C12.0216 42.9783 11.9756 42.9265 11.923 42.879C12.918 37.1253 17.2048 32.3359 22.9009 30.6359C24.2838 31.2982 25.8332 31.6801 27.4726 31.6801C29.1119 31.6801 30.6592 31.2982 32.0443 30.6359C37.7294 32.3316 42.0052 37.1037 43.0134 42.8445C42.7767 43.0646 42.5444 43.2889 42.2989 43.496C42.2485 43.5392 42.1959 43.5802 42.1433 43.6233C41.3083 44.318 40.4229 44.9566 39.4914 45.5348C39.452 45.5606 39.4104 45.5908 39.3709 45.6146C39.0334 45.8195 38.6827 46.0029 38.3343 46.1906C38.0055 46.3653 37.6768 46.5358 37.3415 46.6954C37.0566 46.8313 36.7673 46.9673 36.4758 47.0902C35.8621 47.3491 35.2397 47.5929 34.6041 47.7978C34.5647 47.8108 34.5274 47.828 34.4858 47.841V42.0333C34.4858 38.2256 31.3408 35.1297 27.4726 35.1297C23.6044 35.1297 20.4572 38.2256 20.4572 42.0333ZM30.9682 27.2704C30.9595 27.2747 30.9485 27.2747 30.9375 27.2812C30.451 27.5573 29.9469 27.7601 29.4385 27.9154C29.3464 27.9435 29.2566 27.978 29.1601 27.9996C28.9717 28.047 28.7788 28.0816 28.5881 28.1161C28.2703 28.1657 27.9504 28.2067 27.6194 28.2132C27.5186 28.2153 27.4156 28.2153 27.3126 28.2132C26.9838 28.2067 26.6617 28.1678 26.3439 28.1161C26.1532 28.0837 25.9626 28.0513 25.7719 27.9996C25.6776 27.9758 25.5878 27.9413 25.4935 27.9154C24.9851 27.7623 24.481 27.5573 23.9945 27.2812C23.9857 27.2769 23.9747 27.2768 23.966 27.2704C21.8817 26.0752 20.4572 23.8703 20.4572 21.3225C20.4572 17.5147 23.6022 14.4189 27.4704 14.4189C31.3386 14.4189 34.4836 17.5147 34.4836 21.3225C34.4836 23.8703 33.059 26.073 30.9682 27.2704ZM4.79146 24.2177C5.88727 13.2711 15.1535 4.61574 26.3439 4.08933C32.6602 3.77867 38.6389 5.98136 43.1931 10.2551C47.7517 14.5332 50.2633 20.302 50.2633 26.5002C50.2633 31.3759 48.6261 35.9797 45.8252 39.7336C44.1596 34.6206 40.3265 30.3835 35.3339 28.1743C36.9798 26.347 37.9902 23.9523 37.9902 21.3225C37.9902 15.6119 33.2716 10.9671 27.4704 10.9671C21.6692 10.9671 16.9506 15.6119 16.9506 21.3225C16.9506 23.9523 17.9609 26.3492 19.6068 28.1786C14.6121 30.3878 10.7768 34.6249 9.11334 39.7422C5.88947 35.4015 4.21945 29.9369 4.79146 24.2177ZM62.5364 91.6768L60.9672 94.764C60.8466 95.0013 60.7831 95.2688 60.7831 95.5363V100.714H23.9638V98.9882C23.9638 98.5286 23.7797 98.0907 23.451 97.7671L5.97932 80.5684C5.13993 79.7443 4.6775 78.6441 4.6775 77.4748C4.6775 75.0628 6.67188 73.0996 9.12211 73.0996C10.31 73.0996 11.4255 73.5548 12.2649 74.3811L20.97 82.9502C21.4741 83.4464 22.2258 83.5952 22.8811 83.3256C23.5364 83.0602 23.9638 82.4281 23.9638 81.7313V50.0933V42.0333C23.9638 40.1305 25.5374 38.5815 27.4704 38.5815C29.4034 38.5815 30.977 40.1305 30.977 42.0333V50.0933V62.7442V73.0996H34.4836V62.7442C34.4836 60.8414 36.0572 59.2924 37.9902 59.2924C39.9232 59.2924 41.4968 60.8414 41.4968 62.7442V73.0996H45.0034V62.7442C45.0034 60.8414 46.577 59.2924 48.51 59.2924C50.443 59.2924 52.0166 60.8414 52.0166 62.7442V73.0996H55.5232V62.7442C55.5232 60.8414 57.0968 59.2924 59.0298 59.2924C60.9628 59.2924 62.5364 60.8392 62.5364 62.7377V91.6768Z" fill="#0e2859"/>
<path d="M59.0298 55.8406C56.9236 55.8406 55.0564 56.7769 53.7699 58.2266C52.4834 56.7769 50.6161 55.8406 48.51 55.8406C46.4038 55.8406 44.5366 56.7769 43.2501 58.2266C41.9636 56.7769 40.0963 55.8406 37.9902 55.8406C36.7059 55.8406 35.5202 56.2073 34.4836 56.8006V51.4287C34.7115 51.3662 34.9416 51.3057 35.1674 51.2389C35.3405 51.1871 35.5093 51.1245 35.6802 51.0706C36.2084 50.9002 36.7278 50.7168 37.2428 50.514C37.3809 50.4579 37.519 50.4018 37.6549 50.3457C38.2466 50.0998 38.8296 49.8366 39.4016 49.5496C39.4323 49.5345 39.4651 49.5194 39.4936 49.5022C41.9285 48.2703 44.1728 46.676 46.1277 44.7408C46.1847 44.6847 46.2044 44.6071 46.2526 44.5445C50.9208 39.822 53.7699 33.3995 53.7699 26.5002C53.7699 19.3485 50.8726 12.693 45.6127 7.75688C40.3549 2.82511 33.4535 0.300975 26.1773 0.641841C13.2621 1.25238 2.56696 11.2432 1.3024 23.8811C0.509028 31.7987 3.43704 39.2978 8.73639 44.6222C8.76707 44.6589 8.77803 44.7085 8.81309 44.743C8.93144 44.8617 9.06294 44.9695 9.18348 45.0839C9.27114 45.168 9.36319 45.2478 9.45085 45.332C9.89356 45.7419 10.3472 46.1345 10.814 46.512C10.9543 46.6242 11.0924 46.7386 11.2348 46.8486C11.7038 47.211 12.186 47.5562 12.6769 47.8863C12.7997 47.9683 12.918 48.0546 13.0407 48.1366C13.65 48.5292 14.2702 48.8981 14.908 49.239C15.0548 49.3188 15.2104 49.3857 15.3595 49.4612C15.8548 49.7136 16.3545 49.9531 16.8673 50.1753C17.1018 50.2767 17.3407 50.3716 17.5818 50.4665C18.0486 50.6521 18.522 50.8246 18.9998 50.9843C19.2299 51.062 19.4578 51.1418 19.6901 51.213C19.9444 51.2906 20.2008 51.3618 20.4572 51.4309V77.5632L14.7458 71.9411C13.2446 70.4611 11.248 69.6478 9.12211 69.6478C4.73667 69.6478 1.1709 73.1578 1.1709 77.4748C1.1709 79.5674 1.99933 81.5328 3.4984 83.0106L20.4572 99.7022V102.44C20.4572 103.394 21.2418 104.166 22.2105 104.166H62.5364C63.5051 104.166 64.2897 103.394 64.2897 102.44V95.9441L65.8589 92.8569C65.9794 92.6196 66.043 92.3521 66.043 92.0845V62.7377C66.043 58.9342 62.898 55.8406 59.0298 55.8406ZM20.4572 42.0333V47.841C19.7252 47.6102 19.0151 47.3319 18.3138 47.032C18.1165 46.9457 17.9237 46.8508 17.7308 46.7601C17.2355 46.5315 16.7533 46.2855 16.2778 46.0223C16.0542 45.8972 15.8307 45.7721 15.6115 45.6383C15.1578 45.3665 14.7151 45.0731 14.2812 44.7689C14.0905 44.6351 13.8911 44.51 13.707 44.3698C13.1416 43.9491 12.598 43.5003 12.0742 43.0257C12.0216 42.9783 11.9756 42.9265 11.923 42.879C12.918 37.1253 17.2048 32.3359 22.9009 30.6359C24.2838 31.2982 25.8332 31.6801 27.4726 31.6801C29.1119 31.6801 30.6592 31.2982 32.0443 30.6359C37.7294 32.3316 42.0052 37.1037 43.0134 42.8445C42.7767 43.0646 42.5444 43.2889 42.2989 43.496C42.2485 43.5392 42.1959 43.5802 42.1433 43.6233C41.3083 44.318 40.4229 44.9566 39.4914 45.5348C39.452 45.5606 39.4104 45.5908 39.3709 45.6146C39.0334 45.8195 38.6827 46.0029 38.3343 46.1906C38.0055 46.3653 37.6768 46.5358 37.3415 46.6954C37.0566 46.8313 36.7673 46.9673 36.4758 47.0902C35.8621 47.3491 35.2397 47.5929 34.6041 47.7978C34.5647 47.8108 34.5274 47.828 34.4858 47.841V42.0333C34.4858 38.2256 31.3408 35.1297 27.4726 35.1297C23.6044 35.1297 20.4572 38.2256 20.4572 42.0333ZM30.9682 27.2704C30.9595 27.2747 30.9485 27.2747 30.9375 27.2812C30.451 27.5573 29.9469 27.7601 29.4385 27.9154C29.3464 27.9435 29.2566 27.978 29.1601 27.9996C28.9717 28.047 28.7788 28.0816 28.5881 28.1161C28.2703 28.1657 27.9504 28.2067 27.6194 28.2132C27.5186 28.2153 27.4156 28.2153 27.3126 28.2132C26.9838 28.2067 26.6617 28.1678 26.3439 28.1161C26.1532 28.0837 25.9626 28.0513 25.7719 27.9996C25.6776 27.9758 25.5878 27.9413 25.4935 27.9154C24.9851 27.7623 24.481 27.5573 23.9945 27.2812C23.9857 27.2769 23.9747 27.2768 23.966 27.2704C21.8817 26.0752 20.4572 23.8703 20.4572 21.3225C20.4572 17.5147 23.6022 14.4189 27.4704 14.4189C31.3386 14.4189 34.4836 17.5147 34.4836 21.3225C34.4836 23.8703 33.059 26.073 30.9682 27.2704ZM4.79146 24.2177C5.88727 13.2711 15.1535 4.61574 26.3439 4.08933C32.6602 3.77867 38.6389 5.98136 43.1931 10.2551C47.7517 14.5332 50.2633 20.302 50.2633 26.5002C50.2633 31.3759 48.6261 35.9797 45.8252 39.7336C44.1596 34.6206 40.3265 30.3835 35.3339 28.1743C36.9798 26.347 37.9902 23.9523 37.9902 21.3225C37.9902 15.6119 33.2716 10.9671 27.4704 10.9671C21.6692 10.9671 16.9506 15.6119 16.9506 21.3225C16.9506 23.9523 17.9609 26.3492 19.6068 28.1786C14.6121 30.3878 10.7768 34.6249 9.11334 39.7422C5.88947 35.4015 4.21945 29.9369 4.79146 24.2177ZM62.5364 91.6768L60.9672 94.764C60.8466 95.0013 60.7831 95.2688 60.7831 95.5363V100.714H23.9638V98.9882C23.9638 98.5286 23.7797 98.0907 23.451 97.7671L5.97932 80.5684C5.13993 79.7443 4.6775 78.6441 4.6775 77.4748C4.6775 75.0628 6.67188 73.0996 9.12211 73.0996C10.31 73.0996 11.4255 73.5548 12.2649 74.3811L20.97 82.9502C21.4741 83.4464 22.2258 83.5952 22.8811 83.3256C23.5364 83.0602 23.9638 82.4281 23.9638 81.7313V50.0933V42.0333C23.9638 40.1305 25.5374 38.5815 27.4704 38.5815C29.4034 38.5815 30.977 40.1305 30.977 42.0333V50.0933V62.7442V73.0996H34.4836V62.7442C34.4836 60.8414 36.0572 59.2924 37.9902 59.2924C39.9232 59.2924 41.4968 60.8414 41.4968 62.7442V73.0996H45.0034V62.7442C45.0034 60.8414 46.577 59.2924 48.51 59.2924C50.443 59.2924 52.0166 60.8414 52.0166 62.7442V73.0996H55.5232V62.7442C55.5232 60.8414 57.0968 59.2924 59.0298 59.2924C60.9628 59.2924 62.5364 60.8392 62.5364 62.7377V91.6768Z" stroke="#0e2859" stroke-width="0.796573" mask="url(#path-1-outside-1)"/>
<path d="M58.8328 24.7747C58.8328 27.3639 59.9945 29.6667 61.8 31.28C57.9495 33.3696 55.3262 37.4001 55.3262 42.0337V47.2114C55.3262 48.2779 56.203 49.1365 57.2787 49.1365H78.3183C79.394 49.1365 80.2707 48.2779 80.2707 47.2114V42.0337C80.2707 37.4001 77.6475 33.3696 73.797 31.278C75.6026 29.6665 76.7641 27.3638 76.7641 24.7747C76.7641 19.9026 72.7402 15.946 67.7985 15.946C62.8567 15.946 58.8328 19.9026 58.8328 24.7747ZM62.7377 24.7747C62.7377 22.0334 65.006 19.7961 67.7985 19.7961C70.591 19.7961 72.8592 22.0334 72.8592 24.7747C72.8592 27.5159 70.591 29.7532 67.7985 29.7532C65.006 29.7532 62.7377 27.5159 62.7377 24.7747ZM59.2311 45.2864V42.0337C59.2311 37.3874 63.0708 33.6033 67.7985 33.6033C72.5262 33.6033 76.3658 37.3874 76.3658 42.0337V45.2864H59.2311Z" fill="#0e2859" stroke="#0e2859" stroke-width="0.398287"/>
</svg>
