<svg width="80" height="99" viewBox="0 0 80 99" fill="none" xmlns="http://www.w3.org/2000/svg">
<path d="M68.4471 46.5531H22.9365V52.332H68.4471V46.5531Z" fill="#0e2859"/>
<path d="M68.4471 58.1599H22.9365V63.9388H68.4471V58.1599Z" fill="#0e2859"/>
<path d="M45.1811 69.7662H23.4385V75.5451H45.1811V69.7662Z" fill="#0e2859"/>
<path d="M11.5548 0.129272V81.3703H0.170898V90.0617C0.170898 94.8569 3.99493 98.7558 8.69563 98.7558H71.3035C76.0042 98.7558 79.8282 94.8569 79.8282 90.0643V0.129272H11.5548ZM8.69563 92.9769C7.12117 92.9769 5.83894 91.6695 5.83894 90.0643V87.1517H62.7788V90.0643C62.7788 91.0865 62.9526 92.0676 63.2725 92.9769H8.69563ZM74.1627 90.0643C74.1627 91.6695 72.8805 92.9769 71.306 92.9769C69.7316 92.9769 68.4493 91.6695 68.4493 90.0643V81.3728H17.2229V5.90817H74.1627V90.0643Z" fill="#0e2859"/>
<path d="M34.8551 28.0145V40.7255H56.5297V28.0145L58.0236 28.8877L60.8374 23.8717L55.3508 20.6714V15.1597H49.6827V17.3633L45.6924 15.0364L30.5449 23.8717L33.3588 28.8877L34.8551 28.0145ZM50.8617 24.709V34.9466H40.5232V24.709L45.6924 21.6937L50.8617 24.709Z" fill="#0e2859"/>
</svg>
