<svg width="82" height="82" viewBox="0 0 82 82" fill="none" xmlns="http://www.w3.org/2000/svg">
<mask id="path-1-outside-1" maskUnits="userSpaceOnUse" x="0.00195312" y="0" width="82" height="82" fill="black">
<rect fill="white" x="0.00195312" width="82" height="82"/>
<path d="M74.0212 78.0021V71.1283C76.5702 70.0529 78.1667 67.489 78.004 64.7259C78.004 61.0649 75.6226 58.0878 72.6936 58.0878C69.7645 58.0878 67.3831 61.0649 67.3831 64.7259C67.2204 67.4873 68.8169 70.0529 71.3659 71.1283V78.0021H64.7278V36.8458C64.7278 36.343 64.444 35.8833 63.9943 35.6576L54.1068 30.7155V23.5696C54.1068 22.9771 53.7135 22.456 53.1443 22.2917L35.5201 17.2567V2.32762C35.5201 1.59411 34.926 1 34.1925 1H7.64006C6.90655 1 6.31244 1.59411 6.31244 2.32762V78.0021H1.00195V80.6573H80.6593V78.0021H74.0212ZM70.0383 64.7259C70.0383 62.5668 71.2547 60.743 72.6936 60.743C74.1324 60.743 75.3488 62.5668 75.3488 64.7259C75.3919 65.9971 74.9123 67.2301 74.0212 68.1379V66.0535H71.3659V68.1379C70.4748 67.2301 69.9935 65.9971 70.0383 64.7259ZM8.96769 75.3468H20.9163V72.6916H8.96769V67.3811H20.9163V64.7259H8.96769V59.4154H20.9163V56.7601H8.96769V51.4496H20.9163V48.7944H8.96769V43.4839H20.9163V40.8287H8.96769V35.5182H20.9163V32.8629H8.96769V27.5524H20.9163V24.8972H8.96769V19.5867H20.9163V16.9315H8.96769V11.621H20.9163V8.96573H8.96769V3.65524H32.8649V78.0021H8.96769V75.3468ZM35.5201 75.3468H44.8135V72.6916H35.5201V67.3811H44.8135V64.7259H35.5201V59.4154H44.8135V56.7601H35.5201V51.4496H44.8135V48.7944H35.5201V43.4839H44.8135V40.8287H35.5201V35.5182H44.8135V32.8629H35.5201V27.5524H44.8135V24.8972H35.5201V20.0198L51.4516 24.5703V78.0021H35.5201V75.3468ZM54.1068 78.0021V75.3468H58.0897V72.6916H54.1068V67.3811H58.0897V64.7259H54.1068V59.4154H58.0897V56.7601H54.1068V51.4496H58.0897V48.7944H54.1068V43.4839H58.0897V40.8287H54.1068V33.6827L62.0726 37.6656V78.0021H54.1068Z"/>
</mask>
<path d="M74.0212 78.0021V71.1283C76.5702 70.0529 78.1667 67.489 78.004 64.7259C78.004 61.0649 75.6226 58.0878 72.6936 58.0878C69.7645 58.0878 67.3831 61.0649 67.3831 64.7259C67.2204 67.4873 68.8169 70.0529 71.3659 71.1283V78.0021H64.7278V36.8458C64.7278 36.343 64.444 35.8833 63.9943 35.6576L54.1068 30.7155V23.5696C54.1068 22.9771 53.7135 22.456 53.1443 22.2917L35.5201 17.2567V2.32762C35.5201 1.59411 34.926 1 34.1925 1H7.64006C6.90655 1 6.31244 1.59411 6.31244 2.32762V78.0021H1.00195V80.6573H80.6593V78.0021H74.0212ZM70.0383 64.7259C70.0383 62.5668 71.2547 60.743 72.6936 60.743C74.1324 60.743 75.3488 62.5668 75.3488 64.7259C75.3919 65.9971 74.9123 67.2301 74.0212 68.1379V66.0535H71.3659V68.1379C70.4748 67.2301 69.9935 65.9971 70.0383 64.7259ZM8.96769 75.3468H20.9163V72.6916H8.96769V67.3811H20.9163V64.7259H8.96769V59.4154H20.9163V56.7601H8.96769V51.4496H20.9163V48.7944H8.96769V43.4839H20.9163V40.8287H8.96769V35.5182H20.9163V32.8629H8.96769V27.5524H20.9163V24.8972H8.96769V19.5867H20.9163V16.9315H8.96769V11.621H20.9163V8.96573H8.96769V3.65524H32.8649V78.0021H8.96769V75.3468ZM35.5201 75.3468H44.8135V72.6916H35.5201V67.3811H44.8135V64.7259H35.5201V59.4154H44.8135V56.7601H35.5201V51.4496H44.8135V48.7944H35.5201V43.4839H44.8135V40.8287H35.5201V35.5182H44.8135V32.8629H35.5201V27.5524H44.8135V24.8972H35.5201V20.0198L51.4516 24.5703V78.0021H35.5201V75.3468ZM54.1068 78.0021V75.3468H58.0897V72.6916H54.1068V67.3811H58.0897V64.7259H54.1068V59.4154H58.0897V56.7601H54.1068V51.4496H58.0897V48.7944H54.1068V43.4839H58.0897V40.8287H54.1068V33.6827L62.0726 37.6656V78.0021H54.1068Z" fill="#0e2859"/>
<path d="M74.0212 78.0021V71.1283C76.5702 70.0529 78.1667 67.489 78.004 64.7259C78.004 61.0649 75.6226 58.0878 72.6936 58.0878C69.7645 58.0878 67.3831 61.0649 67.3831 64.7259C67.2204 67.4873 68.8169 70.0529 71.3659 71.1283V78.0021H64.7278V36.8458C64.7278 36.343 64.444 35.8833 63.9943 35.6576L54.1068 30.7155V23.5696C54.1068 22.9771 53.7135 22.456 53.1443 22.2917L35.5201 17.2567V2.32762C35.5201 1.59411 34.926 1 34.1925 1H7.64006C6.90655 1 6.31244 1.59411 6.31244 2.32762V78.0021H1.00195V80.6573H80.6593V78.0021H74.0212ZM70.0383 64.7259C70.0383 62.5668 71.2547 60.743 72.6936 60.743C74.1324 60.743 75.3488 62.5668 75.3488 64.7259C75.3919 65.9971 74.9123 67.2301 74.0212 68.1379V66.0535H71.3659V68.1379C70.4748 67.2301 69.9935 65.9971 70.0383 64.7259ZM8.96769 75.3468H20.9163V72.6916H8.96769V67.3811H20.9163V64.7259H8.96769V59.4154H20.9163V56.7601H8.96769V51.4496H20.9163V48.7944H8.96769V43.4839H20.9163V40.8287H8.96769V35.5182H20.9163V32.8629H8.96769V27.5524H20.9163V24.8972H8.96769V19.5867H20.9163V16.9315H8.96769V11.621H20.9163V8.96573H8.96769V3.65524H32.8649V78.0021H8.96769V75.3468ZM35.5201 75.3468H44.8135V72.6916H35.5201V67.3811H44.8135V64.7259H35.5201V59.4154H44.8135V56.7601H35.5201V51.4496H44.8135V48.7944H35.5201V43.4839H44.8135V40.8287H35.5201V35.5182H44.8135V32.8629H35.5201V27.5524H44.8135V24.8972H35.5201V20.0198L51.4516 24.5703V78.0021H35.5201V75.3468ZM54.1068 78.0021V75.3468H58.0897V72.6916H54.1068V67.3811H58.0897V64.7259H54.1068V59.4154H58.0897V56.7601H54.1068V51.4496H58.0897V48.7944H54.1068V43.4839H58.0897V40.8287H54.1068V33.6827L62.0726 37.6656V78.0021H54.1068Z" stroke="#0e2859" stroke-width="0.796573" mask="url(#path-1-outside-1)"/>
</svg>
