<svg width="80" height="81" viewBox="0 0 80 81" fill="none" xmlns="http://www.w3.org/2000/svg">
<path d="M79.8241 14.5329V0.44519H65.7364V5.14109H14.0877V0.44519H0V14.5329H4.6959V66.1836H0V80.2693H14.0877V75.5734H65.7385V80.2693H79.8241V66.1816H75.1282V14.5329H79.8241ZM70.4323 5.14109H75.1282V9.83699H70.4323V5.14109ZM4.6959 5.14109H9.3918V9.83699H4.6959V5.14109ZM9.3918 75.5734H4.6959V70.8775H9.3918V75.5734ZM75.1282 75.5734H70.4323V70.8775H75.1282V75.5734ZM70.4323 66.1816H65.7364V70.8775H14.0877V66.1816H9.3918V14.5329H14.0877V9.83699H65.7385V14.5329H70.4344V66.1816H70.4323Z" fill="#0e2859"/>
<path d="M19.9854 37.0432L36.5842 20.4443L39.904 23.7641L23.3051 40.3629L19.9854 37.0432Z" fill="#0e2859"/>
<path d="M39.9033 56.9657L56.5022 40.3668L59.8219 43.6866L43.2231 60.2854L39.9033 56.9657Z" fill="#0e2859"/>
<path d="M24.9639 51.9842L51.522 25.426L54.8418 28.7458L28.2836 55.3039L24.9639 51.9842Z" fill="#0e2859"/>
</svg>
