<svg width="80" height="80" viewBox="0 0 80 80" fill="none" xmlns="http://www.w3.org/2000/svg">
<path d="M29.3553 42.9373C22.2076 42.9373 16.3896 48.7531 16.3896 55.9029C16.3896 63.0526 22.2076 68.8685 29.3553 68.8685C36.505 68.8685 42.3229 63.0526 42.3229 55.9029C42.3229 48.7531 36.505 42.9373 29.3553 42.9373ZM29.3553 64.2319C24.764 64.2319 21.0283 60.4962 21.0283 55.9049C21.0283 51.3137 24.764 47.578 29.3553 47.578C33.9465 47.578 37.6843 51.3137 37.6843 55.9049C37.6843 60.4962 33.9486 64.2319 29.3553 64.2319Z" fill="#0e2859"/>
<path d="M61.2987 10.9963C57.0847 10.9963 53.6562 14.4248 53.6562 18.6388C53.6562 22.8528 57.0847 26.2813 61.2987 26.2813C65.5127 26.2813 68.9412 22.8528 68.9412 18.6388C68.9412 14.4248 65.5127 10.9963 61.2987 10.9963ZM61.2987 21.6447C59.6412 21.6447 58.2949 20.2964 58.2949 18.6409C58.2949 16.9854 59.6432 15.6371 61.2987 15.6371C62.9542 15.6371 64.3025 16.9854 64.3025 18.6409C64.3025 20.2964 62.9542 21.6447 61.2987 21.6447Z" fill="#0e2859"/>
<path d="M61.2979 0.350098H13.3855C6.23579 0.350098 0.419922 6.16597 0.419922 13.3157C0.419922 14.3568 5.74512 56.0637 5.74512 56.0637C5.83171 69.0107 16.3893 79.5168 29.355 79.5168C38.0179 79.5168 45.6047 74.8266 49.7136 67.8542L49.7156 67.8562L75.0696 30.6582C77.8796 27.442 79.5867 23.2363 79.5867 18.6388C79.5867 8.5554 71.3814 0.350098 61.2979 0.350098ZM13.3855 4.98877C17.9768 4.98877 21.7125 8.72445 21.7125 13.3157C21.7125 17.907 17.9768 21.6426 13.3855 21.6426C8.79428 21.6426 5.0586 17.907 5.0586 13.3157C5.0586 8.72445 8.79428 4.98877 13.3855 4.98877ZM29.355 74.8782C18.8922 74.8782 10.3817 66.3657 10.3817 55.9029C10.3817 45.4401 18.8942 36.9276 29.355 36.9276C39.8177 36.9276 48.3302 45.4401 48.3302 55.9029C48.3302 66.3657 39.8177 74.8782 29.355 74.8782ZM52.9462 54.8844C52.4102 42.3353 42.034 32.291 29.355 32.291C20.6404 32.291 13.0124 37.0369 8.9221 44.0815L6.44402 24.2589C8.45205 25.5371 10.8332 26.2813 13.3855 26.2813C20.5332 26.2813 26.3511 20.4655 26.3511 13.3157C26.3511 10.147 25.2069 7.24214 23.3144 4.98877H49.1384C45.378 8.34099 43.0071 13.2188 43.0071 18.6388C43.0071 28.7244 51.2124 36.9276 61.2979 36.9276C62.7514 36.9276 64.1636 36.7565 65.5201 36.4349L52.9462 54.8844ZM61.2979 32.291C53.7709 32.291 47.6458 26.1659 47.6458 18.6409C47.6458 11.1139 53.7688 4.99084 61.2979 4.99084C68.827 4.99084 74.948 11.1139 74.948 18.6409C74.948 26.1679 68.8249 32.291 61.2979 32.291Z" fill="#0e2859"/>
<path d="M15.7061 10.9963H11.0674V15.635H15.7061V10.9963Z" fill="#0e2859"/>
</svg>
